<?xml version="1.0" encoding="UTF-8" standalone="no"?><!DOCTYPE svg PUBLIC "-//W3C//DTD SVG 1.1//EN" "http://www.w3.org/Graphics/SVG/1.1/DTD/svg11.dtd"><svg width="100%" height="100%" viewBox="0 0 14 14" version="1.1" xmlns="http://www.w3.org/2000/svg" xmlns:xlink="http://www.w3.org/1999/xlink" xml:space="preserve" xmlns:serif="http://www.serif.com/" style="fill-rule:evenodd;clip-rule:evenodd;stroke-linejoin:round;stroke-miterlimit:2;"><rect id="Artboard1" x="0" y="0" width="13.44" height="13.44" style="fill:none;"/><g id="Artboard11" serif:id="Artboard1"><path d="M2.342,8.196l-0,-1.159c-0,-0.312 -0,-1.56 0.029,-2.02l2.283,-0c-0.014,0.237 -0.014,0.431 -0.014,0.579c-0,0.282 0.102,0.446 0.395,0.446c0.468,-0 0.673,-0.223 0.673,-0.535c-0,-0.371 -0.029,-1.203 -0.029,-2.199l-0,-1.173c0.351,-0.06 0.526,-0.179 0.526,-0.357c0,-0.03 -0.014,-0.059 -0.029,-0.089l1.478,-0l0,1.575c0,1.025 -0.044,1.812 -0.044,2.243c0,0.282 0.103,0.446 0.395,0.446c0.469,-0 0.673,-0.223 0.673,-0.535l0,-0.401l2.225,-0c-0,0.698 -0.015,2.169 -0.015,3.179l-1.829,-0c-0.322,-0.268 -0.981,-0.565 -1.273,-0.624c-0.132,-0.03 -0.264,0.045 -0.234,0.193c0.117,0.966 0.073,3.328 0.073,4.338l-1.961,0c-0.015,-0.802 -0,-2.228 0.015,-2.986c0.307,-0.119 0.599,-0.297 0.599,-0.52c0,-0.342 -0.907,-1.04 -1.229,-1.04c-0.175,0 -0.468,0.342 -0.688,0.639l-2.019,-0Zm6.351,3.907l0,-1.827c0,-0.134 0,-1.159 0.015,-1.486l2.166,0l-0,0.431c-0,0.238 0.117,0.505 0.453,0.505c0.41,0 0.659,-0.104 0.659,-0.564c-0,-0.55 -0.059,-2.853 -0.015,-3.967c0.263,-0.104 0.512,-0.238 0.512,-0.431c0,-0.327 -0.878,-0.98 -1.185,-0.98c-0.161,-0 -0.454,0.341 -0.673,0.638l-1.961,0c-0.015,-0.341 -0.015,-0.742 -0.015,-1.158l0,-1.129c0.351,-0.06 0.527,-0.179 0.527,-0.357c0,-0.03 -0.015,-0.059 -0.029,-0.089l2.985,-0c0.585,-0 0.849,-0.149 0.849,-0.357c-0,-0.386 -1.112,-1.307 -1.42,-1.307c-0.234,-0 -0.673,0.579 -0.995,1.07l-9.79,-0c-0.19,-0 -0.322,0.074 -0.322,0.297c0,0.237 0.132,0.297 0.322,0.297l3.907,-0l0,1.619c0,0.416 0,0.788 -0.014,1.114l-1.903,0c-0.307,-0.282 -1.009,-0.579 -1.317,-0.653c-0.117,-0.03 -0.248,0.044 -0.219,0.193c0.146,1.337 0.058,4.65 0.044,5.586c-0,0.267 0.146,0.401 0.409,0.401c0.439,-0 0.674,-0.134 0.674,-0.461l-0,-0.698l2.268,0c-0,0.758 -0.015,2.526 -0.029,3.313l-4.244,0c-0.19,0 -0.322,0.074 -0.322,0.297c-0,0.238 0.132,0.297 0.322,0.297l12.219,0c0.6,0 0.849,-0.148 0.849,-0.356c-0,-0.386 -1.112,-1.308 -1.42,-1.308c-0.234,0 -0.673,0.58 -0.995,1.07l-2.312,0Z" style="fill:#afb1b6;fill-rule:nonzero;"/></g></svg>